# xmcd
#
# Track frame offsets:
#	150
#	3600
#	16923
#	31391
#	53410
#	65309
#	91950
#	112009
#	126561
#	130214
#	150621
#	168227
#	173067
#	190448
#
# Disc length: 2636 seconds
#
# Revision: 2
# Processed by: cddbd v1.5.2PL0 Copyright (c) Steve Scherf et al.
# Submitted via: EasyCDDAExtractor 12.1.0.1
#
DISCID=b40a4a0e
DTITLE=eysuhl™ 梶芽衣子 - 梶芽衣子 [2005 Teichiku vscd3471] 去れよ、去れよ、悲しみの調べ
DYEAR=1974
DGENRE=Japan Ethno Song
TTITLE0=〜新しい日々〜
TTITLE1=舟にゆられて
TTITLE2=不思議ね
TTITLE3=うつろな風のある日
TTITLE4=別れ話なんか
TTITLE5=雨の夜あなたは
TTITLE6=この新しい朝に
TTITLE7=南風
TTITLE8=〜旅（セリフ）〜
TTITLE9=秋
TTITLE10=朝の感情
TTITLE11=〜七日間（セリフ）〜
TTITLE12=とりとめもない思い
TTITLE13=〜元気よ（セリフ）〜
EXTD=
EXTT0=
EXTT1=
EXTT2=
EXTT3=
EXTT4=
EXTT5=
EXTT6=
EXTT7=
EXTT8=
EXTT9=
EXTT10=
EXTT11=
EXTT12=
EXTT13=
PLAYORDER=
